{
	"asset":{
		"generator":"Khronos glTF Blender I/O v4.0.44",
		"version":"2.0"
	},
	"scene":0,
	"scenes":[
		{
			"name":"Scene",
			"nodes":[
				2
			]
		}
	],
	"nodes":[
		{
			"mesh":0,
			"name":"CassetteTape"
		},
		{
			"children":[
				0
			],
			"mesh":1,
			"name":"Case Lid",
			"translation":[
				0,
				0,
				0.02499999850988388
			]
		},
		{
			"children":[
				1
			],
			"mesh":2,
			"name":"Case Lower"
		}
	],
	"materials":[
		{
			"doubleSided":true,
			"name":"Cassette",
			"pbrMetallicRoughness":{
				"baseColorFactor":[
					0,
					0.3179444670677185,
					0.8016180992126465,
					1
				],
				"metallicFactor":0,
				"roughnessFactor":0.5
			}
		},
		{
			"doubleSided":true,
			"name":"Labels",
			"pbrMetallicRoughness":{
				"baseColorFactor":[
					0.5085682272911072,
					0,
					0.8010324239730835,
					1
				],
				"metallicFactor":0,
				"roughnessFactor":0.5
			}
		},
		{
			"alphaMode":"BLEND",
			"doubleSided":true,
			"emissiveFactor":[
				1,
				1,
				1
			],
			"name":"Case",
			"pbrMetallicRoughness":{
				"baseColorFactor":[
					0,
					0,
					0,
					1
				]
			}
		}
	],
	"meshes":[
		{
			"name":"Cube.017",
			"primitives":[
				{
					"attributes":{
						"POSITION":0,
						"NORMAL":1,
						"TEXCOORD_0":2
					},
					"indices":3,
					"material":0
				},
				{
					"attributes":{
						"POSITION":4,
						"NORMAL":5,
						"TEXCOORD_0":6
					},
					"indices":7,
					"material":1
				}
			]
		},
		{
			"name":"Cube.015",
			"primitives":[
				{
					"attributes":{
						"POSITION":8,
						"NORMAL":9,
						"TEXCOORD_0":10
					},
					"indices":11,
					"material":2
				},
				{
					"attributes":{
						"POSITION":12,
						"NORMAL":13,
						"TEXCOORD_0":14
					},
					"indices":15,
					"material":1
				}
			]
		},
		{
			"name":"Cube.014",
			"primitives":[
				{
					"attributes":{
						"POSITION":16,
						"NORMAL":17,
						"TEXCOORD_0":18
					},
					"indices":19,
					"material":2
				}
			]
		}
	],
	"accessors":[
		{
			"bufferView":0,
			"componentType":5126,
			"count":11578,
			"max":[
				0.05178368091583252,
				0.006717980839312077,
				0.007000003010034561
			],
			"min":[
				-0.05178368091583252,
				-0.006717980839312077,
				-0.056999996304512024
			],
			"type":"VEC3"
		},
		{
			"bufferView":1,
			"componentType":5126,
			"count":11578,
			"type":"VEC3"
		},
		{
			"bufferView":2,
			"componentType":5126,
			"count":11578,
			"type":"VEC2"
		},
		{
			"bufferView":3,
			"componentType":5123,
			"count":36792,
			"type":"SCALAR"
		},
		{
			"bufferView":4,
			"componentType":5126,
			"count":82,
			"max":[
				0.04450076073408127,
				0.004498990718275309,
				-0.011864569038152695
			],
			"min":[
				-0.04450076445937157,
				-0.004498990718275309,
				-0.051474034786224365
			],
			"type":"VEC3"
		},
		{
			"bufferView":5,
			"componentType":5126,
			"count":82,
			"type":"VEC3"
		},
		{
			"bufferView":6,
			"componentType":5126,
			"count":82,
			"type":"VEC2"
		},
		{
			"bufferView":7,
			"componentType":5123,
			"count":246,
			"type":"SCALAR"
		},
		{
			"bufferView":8,
			"componentType":5126,
			"count":444,
			"max":[
				0.05258449167013168,
				0.007698473520576954,
				0.00825279951095581
			],
			"min":[
				-0.05258449167013168,
				-0.007807533722370863,
				-0.05779999867081642
			],
			"type":"VEC3"
		},
		{
			"bufferView":9,
			"componentType":5126,
			"count":444,
			"type":"VEC3"
		},
		{
			"bufferView":10,
			"componentType":5126,
			"count":444,
			"type":"VEC2"
		},
		{
			"bufferView":11,
			"componentType":5123,
			"count":1212,
			"type":"SCALAR"
		},
		{
			"bufferView":12,
			"componentType":5126,
			"count":202,
			"max":[
				0.05150117725133896,
				0.006881434936076403,
				0.007878627628087997
			],
			"min":[
				-0.05150117725133896,
				-0.006900262553244829,
				-0.05753621459007263
			],
			"type":"VEC3"
		},
		{
			"bufferView":13,
			"componentType":5126,
			"count":202,
			"type":"VEC3"
		},
		{
			"bufferView":14,
			"componentType":5126,
			"count":202,
			"type":"VEC2"
		},
		{
			"bufferView":15,
			"componentType":5123,
			"count":456,
			"type":"SCALAR"
		},
		{
			"bufferView":16,
			"componentType":5126,
			"count":1472,
			"max":[
				0.053843434900045395,
				0.007799999788403511,
				0.033129800111055374
			],
			"min":[
				-0.053843434900045395,
				-0.007799998857080936,
				-0.032999999821186066
			],
			"type":"VEC3"
		},
		{
			"bufferView":17,
			"componentType":5126,
			"count":1472,
			"type":"VEC3"
		},
		{
			"bufferView":18,
			"componentType":5126,
			"count":1472,
			"type":"VEC2"
		},
		{
			"bufferView":19,
			"componentType":5123,
			"count":4740,
			"type":"SCALAR"
		}
	],
	"bufferViews":[
		{
			"buffer":0,
			"byteLength":138936,
			"byteOffset":0,
			"target":34962
		},
		{
			"buffer":0,
			"byteLength":138936,
			"byteOffset":138936,
			"target":34962
		},
		{
			"buffer":0,
			"byteLength":92624,
			"byteOffset":277872,
			"target":34962
		},
		{
			"buffer":0,
			"byteLength":73584,
			"byteOffset":370496,
			"target":34963
		},
		{
			"buffer":0,
			"byteLength":984,
			"byteOffset":444080,
			"target":34962
		},
		{
			"buffer":0,
			"byteLength":984,
			"byteOffset":445064,
			"target":34962
		},
		{
			"buffer":0,
			"byteLength":656,
			"byteOffset":446048,
			"target":34962
		},
		{
			"buffer":0,
			"byteLength":492,
			"byteOffset":446704,
			"target":34963
		},
		{
			"buffer":0,
			"byteLength":5328,
			"byteOffset":447196,
			"target":34962
		},
		{
			"buffer":0,
			"byteLength":5328,
			"byteOffset":452524,
			"target":34962
		},
		{
			"buffer":0,
			"byteLength":3552,
			"byteOffset":457852,
			"target":34962
		},
		{
			"buffer":0,
			"byteLength":2424,
			"byteOffset":461404,
			"target":34963
		},
		{
			"buffer":0,
			"byteLength":2424,
			"byteOffset":463828,
			"target":34962
		},
		{
			"buffer":0,
			"byteLength":2424,
			"byteOffset":466252,
			"target":34962
		},
		{
			"buffer":0,
			"byteLength":1616,
			"byteOffset":468676,
			"target":34962
		},
		{
			"buffer":0,
			"byteLength":912,
			"byteOffset":470292,
			"target":34963
		},
		{
			"buffer":0,
			"byteLength":17664,
			"byteOffset":471204,
			"target":34962
		},
		{
			"buffer":0,
			"byteLength":17664,
			"byteOffset":488868,
			"target":34962
		},
		{
			"buffer":0,
			"byteLength":11776,
			"byteOffset":506532,
			"target":34962
		},
		{
			"buffer":0,
			"byteLength":9480,
			"byteOffset":518308,
			"target":34963
		}
	],
	"buffers":[
		{
			"byteLength":527788,
			"uri":"CasetteMaterialConcept.bin"
		}
	]
}
